<svg xmlns="http://www.w3.org/2000/svg" xmlns:xlink="http://www.w3.org/1999/xlink" width="1920" zoomAndPan="magnify" viewBox="0 0 1440 809.999993" height="1080" preserveAspectRatio="xMidYMid meet" version="1.2"><defs/><g id="a4d2c47fc2"><g style="fill:#006375;fill-opacity:1;"><g transform="translate(287.850605, 717.491629)"><path style="stroke:none" d="M 192.3125 -159.734375 C 192.3125 -180.265625 182.644531 -190.53125 163.3125 -190.53125 C 160.632812 -190.53125 157.359375 -190.304688 153.484375 -189.859375 C 149.617188 -189.410156 146.945312 -190.378906 145.46875 -192.765625 C 143.082031 -196.035156 146.945312 -198.265625 157.0625 -199.453125 C 160.632812 -200.046875 164.203125 -200.34375 167.765625 -200.34375 C 185.023438 -200.34375 196.773438 -192.90625 203.015625 -178.03125 C 205.691406 -171.789062 207.03125 -163.832031 207.03125 -154.15625 C 207.03125 -144.488281 202.867188 -132.367188 194.546875 -117.796875 C 179.972656 -91.316406 157.066406 -71.535156 125.828125 -58.453125 C 115.421875 -53.992188 104.640625 -51.765625 93.484375 -51.765625 C 82.328125 -51.765625 70.800781 -54.585938 58.90625 -60.234375 C 36.882812 -70.648438 21.5625 -88.050781 12.9375 -112.4375 C 9.664062 -121.957031 8.03125 -133.929688 8.03125 -148.359375 C 8.03125 -162.785156 12.046875 -181.003906 20.078125 -203.015625 C 38.523438 -246.148438 68.867188 -282.890625 111.109375 -313.234375 C 156.316406 -345.953125 198.554688 -362.3125 237.828125 -362.3125 C 271.140625 -362.3125 293.445312 -348.925781 304.75 -322.15625 C 309.8125 -310.550781 312.34375 -296.570312 312.34375 -280.21875 C 312.34375 -274.863281 312.046875 -269.359375 311.453125 -263.703125 C 308.472656 -237.828125 300.738281 -208.226562 288.25 -174.90625 C 286.164062 -169.257812 285.125 -165.46875 285.125 -163.53125 C 285.125 -161.601562 285.570312 -160.640625 286.46875 -160.640625 C 287.945312 -160.335938 290.472656 -163.457031 294.046875 -170 C 316.054688 -210.15625 340.300781 -246.148438 366.78125 -277.984375 C 375.40625 -288.398438 385.816406 -296.878906 398.015625 -303.421875 C 411.398438 -310.554688 423.367188 -314.125 433.921875 -314.125 C 444.484375 -314.125 452.8125 -310.253906 458.90625 -302.515625 C 465.007812 -294.785156 468.0625 -284.523438 468.0625 -271.734375 C 468.0625 -241.691406 456.3125 -191.570312 432.8125 -121.375 C 428.050781 -107.382812 425.078125 -98.457031 423.890625 -94.59375 C 447.984375 -132.375 478.25 -173.945312 514.6875 -219.3125 C 551.132812 -264.675781 583.488281 -291.519531 611.75 -299.84375 C 616.800781 -301.332031 621.257812 -302.078125 625.125 -302.078125 C 636.4375 -302.078125 643.726562 -296.425781 647 -285.125 C 648.1875 -281.257812 648.78125 -276.796875 648.78125 -271.734375 C 648.78125 -256.566406 642.832031 -237.082031 630.9375 -213.28125 C 606.539062 -164.5 589.878906 -125.679688 580.953125 -96.828125 C 568.753906 -58.753906 562.65625 -32.722656 562.65625 -18.734375 C 562.65625 -4.753906 563.992188 6.84375 566.671875 16.0625 C 572.023438 34.507812 586.15625 43.734375 609.0625 43.734375 C 610.257812 43.734375 612.710938 43.65625 616.421875 43.5 C 620.140625 43.351562 622.222656 44.023438 622.671875 45.515625 C 623.117188 47.003906 622.078125 48.34375 619.546875 49.53125 C 617.023438 50.71875 614.5 51.3125 611.96875 51.3125 C 609.4375 51.3125 607.425781 51.160156 605.9375 50.859375 C 558.9375 46.109375 535.4375 22.015625 535.4375 -21.421875 C 535.4375 -37.179688 538.632812 -55.097656 545.03125 -75.171875 C 551.425781 -95.253906 556.859375 -110.65625 561.328125 -121.375 C 568.460938 -138.625 583.484375 -172.382812 606.390625 -222.65625 C 614.421875 -241.394531 618.4375 -255.671875 618.4375 -265.484375 C 618.4375 -275.304688 614.269531 -280.21875 605.9375 -280.21875 C 594.34375 -280.21875 576.347656 -268.316406 551.953125 -244.515625 C 539.460938 -232.023438 525.925781 -216.78125 511.34375 -198.78125 C 496.769531 -180.78125 475.203125 -149.25 446.640625 -104.1875 C 418.085938 -59.125 399.945312 -27.367188 392.21875 -8.921875 C 385.375 7.140625 376.300781 15.171875 365 15.171875 C 356.96875 15.171875 352.207031 12.34375 350.71875 6.6875 C 349.820312 4.3125 349.816406 2.453125 350.703125 1.109375 C 351.597656 -0.222656 354.425781 -5.203125 359.1875 -13.828125 C 363.945312 -22.453125 368.851562 -31.523438 373.90625 -41.046875 C 378.96875 -50.566406 384.992188 -63.503906 391.984375 -79.859375 C 398.972656 -96.222656 405.445312 -112.882812 411.40625 -129.84375 C 425.675781 -171.789062 435.34375 -214.925781 440.40625 -259.25 C 441 -264.300781 441.296875 -270.617188 441.296875 -278.203125 C 441.296875 -285.785156 439.285156 -291.804688 435.265625 -296.265625 C 431.253906 -300.734375 427.015625 -302.96875 422.546875 -302.96875 C 407.972656 -302.96875 391.910156 -291.960938 374.359375 -269.953125 C 350.566406 -240.503906 329.894531 -211.570312 312.34375 -183.15625 C 294.789062 -154.75 281.328125 -130.878906 271.953125 -111.546875 C 262.585938 -92.210938 251.734375 -68.9375 239.390625 -41.71875 C 227.046875 -14.5 220.5 0 219.75 1.78125 C 219.007812 3.570312 217.96875 5.804688 216.625 8.484375 C 215.289062 11.160156 214.175781 13.6875 213.28125 16.0625 C 209.414062 24.6875 201.085938 29 188.296875 29 C 180.859375 29 176.84375 26.617188 176.25 21.859375 C 176.25 20.972656 176.398438 19.929688 176.703125 18.734375 C 196.328125 -11.597656 218.039062 -57.554688 241.84375 -119.140625 C 272.1875 -197.078125 287.359375 -253.890625 287.359375 -289.578125 C 287.359375 -332.117188 269.804688 -353.390625 234.703125 -353.390625 C 212.097656 -353.390625 183.613281 -342.53125 149.25 -320.8125 C 114.894531 -299.101562 86.414062 -271.289062 63.8125 -237.375 C 54.882812 -223.988281 48.191406 -211.050781 43.734375 -198.5625 C 35.992188 -175.65625 32.125 -157.507812 32.125 -144.125 C 32.125 -105.75 44.914062 -80.460938 70.5 -68.265625 C 79.425781 -63.804688 88.5 -61.578125 97.71875 -61.578125 C 129.84375 -61.578125 156.171875 -78.976562 176.703125 -113.78125 C 187.109375 -131.332031 192.3125 -146.648438 192.3125 -159.734375 Z M 192.3125 -159.734375 "/></g></g><g style="fill:#006375;fill-opacity:1;"><g transform="translate(880.849057, 717.491629)"><path style="stroke:none" d="M 86.5625 -173.5625 C 82.394531 -170 77.78125 -168.21875 72.71875 -168.21875 C 67.664062 -168.21875 63.648438 -170 60.671875 -173.5625 C 57.703125 -177.132812 56.515625 -181.453125 57.109375 -186.515625 C 58.003906 -191.566406 60.535156 -195.878906 64.703125 -199.453125 C 68.867188 -203.023438 73.476562 -204.8125 78.53125 -204.8125 C 83.59375 -204.8125 87.679688 -203.023438 90.796875 -199.453125 C 93.921875 -195.878906 95.035156 -191.5625 94.140625 -186.5 C 93.253906 -181.445312 90.726562 -177.132812 86.5625 -173.5625 Z M 42.828125 -9.8125 C 48.484375 -9.8125 54.4375 -12.640625 60.6875 -18.296875 C 71.6875 -29.296875 85.664062 -51.753906 102.625 -85.671875 C 104.707031 -90.128906 106.789062 -91.46875 108.875 -89.6875 C 109.46875 -89.09375 109.765625 -88.125 109.765625 -86.78125 C 109.765625 -85.445312 108.570312 -82.175781 106.1875 -76.96875 C 103.8125 -71.757812 101.65625 -67.070312 99.71875 -62.90625 C 97.789062 -58.75 94.070312 -51.984375 88.5625 -42.609375 C 83.0625 -33.242188 78.082031 -26.03125 73.625 -20.96875 C 61.425781 -6.988281 49.894531 0 39.03125 0 C 28.175781 0 20.367188 -3.269531 15.609375 -9.8125 C 10.859375 -16.363281 8.484375 -23.65625 8.484375 -31.6875 C 8.484375 -39.71875 10.414062 -48.488281 14.28125 -58 L 42.828125 -130.734375 C 43.429688 -132.523438 43.734375 -134.90625 43.734375 -137.875 C 43.734375 -140.851562 41.945312 -144.722656 38.375 -149.484375 L 62.921875 -149.921875 C 69.753906 -149.921875 73.765625 -148.65625 74.953125 -146.125 C 76.148438 -143.601562 75.257812 -139.664062 72.28125 -134.3125 L 36.59375 -50.859375 C 31.53125 -39.859375 29 -30.488281 29 -22.75 C 29 -14.125 33.609375 -9.8125 42.828125 -9.8125 Z M 42.828125 -9.8125 "/></g></g><g style="fill:#006375;fill-opacity:1;"><g transform="translate(958.487695, 717.491629)"><path style="stroke:none" d="M 85.671875 -178.921875 C 85.671875 -165.535156 77.195312 -152.894531 60.25 -141 C 66.195312 -140.695312 74.148438 -140.546875 84.109375 -140.546875 C 94.078125 -140.546875 106.648438 -141.289062 121.828125 -142.78125 C 122.421875 -141.894531 122.71875 -139.515625 122.71875 -135.640625 C 122.71875 -131.773438 120.929688 -126.050781 117.359375 -118.46875 C 113.785156 -110.882812 110.585938 -104.335938 107.765625 -98.828125 C 104.941406 -93.328125 102.265625 -88.125 99.734375 -83.21875 C 97.203125 -78.3125 94.375 -72.285156 91.25 -65.140625 C 88.132812 -58.003906 85.535156 -51.460938 83.453125 -45.515625 C 76.015625 -22.898438 77.203125 -11.59375 87.015625 -11.59375 C 99.503906 -11.59375 117.945312 -36.4375 142.34375 -86.125 C 144.425781 -89.988281 146.132812 -91.472656 147.46875 -90.578125 C 148.8125 -89.679688 149.484375 -88.5625 149.484375 -87.21875 C 149.484375 -85.882812 147.550781 -81.273438 143.6875 -73.390625 C 139.820312 -65.515625 135.65625 -57.410156 131.1875 -49.078125 C 126.726562 -40.753906 119.738281 -31.085938 110.21875 -20.078125 C 98.914062 -6.390625 88.054688 0.453125 77.640625 0.453125 C 66.046875 0.453125 58.015625 -6.539062 53.546875 -20.53125 C 52.660156 -23.207031 52.21875 -27.222656 52.21875 -32.578125 C 52.21875 -37.929688 53.925781 -45.066406 57.34375 -53.984375 C 60.757812 -62.910156 66.1875 -73.769531 73.625 -86.5625 C 81.0625 -99.351562 85.226562 -106.863281 86.125 -109.09375 C 87.019531 -111.320312 87.46875 -113.476562 87.46875 -115.5625 C 87.46875 -124.789062 75.566406 -129.703125 51.765625 -130.296875 L 46.40625 -116.015625 C 27.664062 -66.929688 9.671875 -34.0625 -7.578125 -17.40625 C -10.554688 -14.726562 -12.046875 -15.617188 -12.046875 -20.078125 C -12.046875 -20.972656 -11.742188 -22.015625 -11.140625 -23.203125 C 5.515625 -45.210938 19.9375 -71.238281 32.125 -101.28125 C 44.320312 -131.332031 52.800781 -159.890625 57.5625 -186.953125 C 59.351562 -196.179688 63.519531 -200.796875 70.0625 -200.796875 C 76.601562 -200.796875 81.363281 -196.628906 84.34375 -188.296875 C 85.226562 -185.617188 85.671875 -182.492188 85.671875 -178.921875 Z M 85.671875 -178.921875 "/></g></g><g style="fill:#006375;fill-opacity:1;"><g transform="translate(1074.499361, 717.491629)"><path style="stroke:none" d="M 86.5625 -173.5625 C 82.394531 -170 77.78125 -168.21875 72.71875 -168.21875 C 67.664062 -168.21875 63.648438 -170 60.671875 -173.5625 C 57.703125 -177.132812 56.515625 -181.453125 57.109375 -186.515625 C 58.003906 -191.566406 60.535156 -195.878906 64.703125 -199.453125 C 68.867188 -203.023438 73.476562 -204.8125 78.53125 -204.8125 C 83.59375 -204.8125 87.679688 -203.023438 90.796875 -199.453125 C 93.921875 -195.878906 95.035156 -191.5625 94.140625 -186.5 C 93.253906 -181.445312 90.726562 -177.132812 86.5625 -173.5625 Z M 42.828125 -9.8125 C 48.484375 -9.8125 54.4375 -12.640625 60.6875 -18.296875 C 71.6875 -29.296875 85.664062 -51.753906 102.625 -85.671875 C 104.707031 -90.128906 106.789062 -91.46875 108.875 -89.6875 C 109.46875 -89.09375 109.765625 -88.125 109.765625 -86.78125 C 109.765625 -85.445312 108.570312 -82.175781 106.1875 -76.96875 C 103.8125 -71.757812 101.65625 -67.070312 99.71875 -62.90625 C 97.789062 -58.75 94.070312 -51.984375 88.5625 -42.609375 C 83.0625 -33.242188 78.082031 -26.03125 73.625 -20.96875 C 61.425781 -6.988281 49.894531 0 39.03125 0 C 28.175781 0 20.367188 -3.269531 15.609375 -9.8125 C 10.859375 -16.363281 8.484375 -23.65625 8.484375 -31.6875 C 8.484375 -39.71875 10.414062 -48.488281 14.28125 -58 L 42.828125 -130.734375 C 43.429688 -132.523438 43.734375 -134.90625 43.734375 -137.875 C 43.734375 -140.851562 41.945312 -144.722656 38.375 -149.484375 L 62.921875 -149.921875 C 69.753906 -149.921875 73.765625 -148.65625 74.953125 -146.125 C 76.148438 -143.601562 75.257812 -139.664062 72.28125 -134.3125 L 36.59375 -50.859375 C 31.53125 -39.859375 29 -30.488281 29 -22.75 C 29 -14.125 33.609375 -9.8125 42.828125 -9.8125 Z M 42.828125 -9.8125 "/></g></g><g style="fill:#bd1270;fill-opacity:1;"><g transform="translate(321.492178, 189.457167)"><path style="stroke:none" d="M 30.65625 -81.75 L 30.65625 -20.4375 L 10.21875 -20.4375 L 10.21875 -81.75 Z M 30.65625 0 L 30.65625 -20.4375 L 112.40625 -20.4375 L 112.40625 0 Z M 30.65625 -81.75 L 30.65625 -102.1875 L 112.40625 -102.1875 L 112.40625 -81.75 Z M 30.65625 -81.75 "/></g></g><g style="fill:#bd1270;fill-opacity:1;"><g transform="translate(444.105864, 189.457167)"><path style="stroke:none" d="M 10.21875 0 L 10.21875 -81.75 L 30.65625 -81.75 L 30.65625 -40.875 L 91.96875 -40.875 L 91.96875 -81.75 L 112.40625 -81.75 L 112.40625 0 L 91.96875 0 L 91.96875 -20.4375 L 30.65625 -20.4375 L 30.65625 0 Z M 30.65625 -81.75 L 30.65625 -102.1875 L 91.96875 -102.1875 L 91.96875 -81.75 Z M 30.65625 -81.75 "/></g></g><g style="fill:#bd1270;fill-opacity:1;"><g transform="translate(566.719551, 189.457167)"><path style="stroke:none" d="M 10.21875 0 L 10.21875 -102.1875 L 91.96875 -102.1875 L 91.96875 -81.75 L 30.65625 -81.75 L 30.65625 -40.875 L 91.96875 -40.875 L 91.96875 -20.4375 L 30.65625 -20.4375 L 30.65625 0 Z M 91.96875 0 L 91.96875 -20.4375 L 112.40625 -20.4375 L 112.40625 0 Z M 91.96875 -40.875 L 91.96875 -81.75 L 112.40625 -81.75 L 112.40625 -40.875 Z M 91.96875 -40.875 "/></g></g><g style="fill:#bd1270;fill-opacity:1;"><g transform="translate(689.333238, 189.457167)"><path style="stroke:none" d="M 51.09375 0 L 51.09375 -81.75 L 10.21875 -81.75 L 10.21875 -102.1875 L 112.40625 -102.1875 L 112.40625 -81.75 L 71.53125 -81.75 L 71.53125 0 Z M 51.09375 0 "/></g></g><g style="fill:#bd1270;fill-opacity:1;"><g transform="translate(811.946925, 189.457167)"><path style="stroke:none" d="M 10.21875 0 L 10.21875 -81.75 L 30.65625 -81.75 L 30.65625 -40.875 L 91.96875 -40.875 L 91.96875 -81.75 L 112.40625 -81.75 L 112.40625 0 L 91.96875 0 L 91.96875 -20.4375 L 30.65625 -20.4375 L 30.65625 0 Z M 30.65625 -81.75 L 30.65625 -102.1875 L 91.96875 -102.1875 L 91.96875 -81.75 Z M 30.65625 -81.75 "/></g></g><g style="fill:#bd1270;fill-opacity:1;"><g transform="translate(934.560612, 189.457167)"><path style="stroke:none" d="M 30.65625 -81.75 L 30.65625 -61.3125 L 10.21875 -61.3125 L 10.21875 -81.75 Z M 10.21875 0 L 10.21875 -20.4375 L 91.96875 -20.4375 L 91.96875 0 Z M 30.65625 -40.875 L 30.65625 -61.3125 L 91.96875 -61.3125 L 91.96875 -40.875 Z M 30.65625 -81.75 L 30.65625 -102.1875 L 112.40625 -102.1875 L 112.40625 -81.75 Z M 91.96875 -20.4375 L 91.96875 -40.875 L 112.40625 -40.875 L 112.40625 -20.4375 Z M 91.96875 -20.4375 "/></g></g><g style="fill:#bd1270;fill-opacity:1;"><g transform="translate(1057.183551, 189.457167)"><path style="stroke:none" d=""/></g></g><g style="fill:#bd1270;fill-opacity:1;"><g transform="translate(474.761705, 328.95716)"><path style="stroke:none" d="M 10.21875 0 L 10.21875 -102.1875 L 91.96875 -102.1875 L 91.96875 -81.75 L 30.65625 -81.75 L 30.65625 -40.875 L 91.96875 -40.875 L 91.96875 -20.4375 L 30.65625 -20.4375 L 30.65625 0 Z M 91.96875 -40.875 L 91.96875 -81.75 L 112.40625 -81.75 L 112.40625 -40.875 Z M 91.96875 -40.875 "/></g></g><g style="fill:#bd1270;fill-opacity:1;"><g transform="translate(597.375392, 328.95716)"><path style="stroke:none" d="M 10.21875 0 L 10.21875 -81.75 L 30.65625 -81.75 L 30.65625 -40.875 L 91.96875 -40.875 L 91.96875 -81.75 L 112.40625 -81.75 L 112.40625 0 L 91.96875 0 L 91.96875 -20.4375 L 30.65625 -20.4375 L 30.65625 0 Z M 30.65625 -81.75 L 30.65625 -102.1875 L 91.96875 -102.1875 L 91.96875 -81.75 Z M 30.65625 -81.75 "/></g></g><g style="fill:#bd1270;fill-opacity:1;"><g transform="translate(719.989079, 328.95716)"><path style="stroke:none" d="M 10.21875 0 L 10.21875 -102.1875 L 91.96875 -102.1875 L 91.96875 -81.75 L 30.65625 -81.75 L 30.65625 -40.875 L 91.96875 -40.875 L 91.96875 -20.4375 L 30.65625 -20.4375 L 30.65625 0 Z M 91.96875 0 L 91.96875 -20.4375 L 112.40625 -20.4375 L 112.40625 0 Z M 91.96875 -40.875 L 91.96875 -81.75 L 112.40625 -81.75 L 112.40625 -40.875 Z M 91.96875 -40.875 "/></g></g><g style="fill:#bd1270;fill-opacity:1;"><g transform="translate(842.602765, 328.95716)"><path style="stroke:none" d="M 10.21875 0 L 10.21875 -81.75 L 30.65625 -81.75 L 30.65625 -40.875 L 91.96875 -40.875 L 91.96875 -81.75 L 112.40625 -81.75 L 112.40625 0 L 91.96875 0 L 91.96875 -20.4375 L 30.65625 -20.4375 L 30.65625 0 Z M 30.65625 -81.75 L 30.65625 -102.1875 L 91.96875 -102.1875 L 91.96875 -81.75 Z M 30.65625 -81.75 "/></g></g></g></svg>